<?xml version="1.0" encoding="UTF-8" standalone="no"?>
<svg
   xmlns:dc="http://purl.org/dc/elements/1.1/"
   xmlns:cc="http://creativecommons.org/ns#"
   xmlns:rdf="http://www.w3.org/1999/02/22-rdf-syntax-ns#"
   xmlns:svg="http://www.w3.org/2000/svg"
   xmlns="http://www.w3.org/2000/svg"
   xmlns:sodipodi="http://sodipodi.sourceforge.net/DTD/sodipodi-0.dtd"
   xmlns:inkscape="http://www.inkscape.org/namespaces/inkscape"
   id="Layer_1"
   viewBox="0 0 1024 1024"
   version="1.1"
   sodipodi:docname="discrop.svg"
   width="1024"
   height="1024"
   inkscape:version="0.92.4 (5da689c313, 2019-01-14)"
   inkscape:export-filename="C:\Users\Patsonical\Desktop\discrop_blue.png"
   inkscape:export-xdpi="96"
   inkscape:export-ydpi="96">
  <metadata
     id="metadata3722">
    <rdf:RDF>
      <cc:Work
         rdf:about="">
        <dc:format>image/svg+xml</dc:format>
        <dc:type
           rdf:resource="http://purl.org/dc/dcmitype/StillImage" />
        <dc:title></dc:title>
      </cc:Work>
    </rdf:RDF>
  </metadata>
  <defs
     id="defs3720" />
  <sodipodi:namedview
     pagecolor="#ffffff"
     bordercolor="#666666"
     borderopacity="1"
     objecttolerance="10"
     gridtolerance="10"
     guidetolerance="10"
     inkscape:pageopacity="0"
     inkscape:pageshadow="2"
     inkscape:window-width="1555"
     inkscape:window-height="1371"
     id="namedview3718"
     showgrid="false"
     inkscape:snap-global="true"
     inkscape:snap-bbox="true"
     units="px"
     inkscape:snap-midpoints="false"
     inkscape:object-paths="false"
     inkscape:snap-nodes="true"
     inkscape:snap-bbox-midpoints="true"
     inkscape:zoom="0.99342105"
     inkscape:cx="502.66997"
     inkscape:cy="502.1244"
     inkscape:window-x="1008"
     inkscape:window-y="0"
     inkscape:window-maximized="0"
     inkscape:current-layer="layer4"
     inkscape:snap-grids="true"
     inkscape:snap-bbox-edge-midpoints="true"
     inkscape:bbox-paths="true"
     inkscape:bbox-nodes="true"
     inkscape:snap-page="true" />
  <style
     id="style3713">.st0{fill:#7289DA;}</style>
  <g
     inkscape:groupmode="layer"
     id="layer4"
     inkscape:label="Layer 4">
    <path
       style="fill:#f04747;fill-opacity:1;stroke-width:1.50850904"
       d="M 512 0 A 512 512 0 0 0 0 512 A 512 512 0 0 0 512 1024 A 512 512 0 0 0 1024 512 A 512 512 0 0 0 512 0 z "
       id="rect3850-5" />
  </g>
  <g
     inkscape:groupmode="layer"
     id="layer3"
     inkscape:label="Layer 3">
    <path
       style="stroke-width:1.11249256;fill:#000000;fill-opacity:1"
       d="M 512 0 A 512 512 0 0 0 233.53711 82.472656 L 233.53711 941.0918 A 512 512 0 0 0 512 1024 A 512 512 0 0 0 790.46289 941.52734 L 790.46289 82.908203 A 512 512 0 0 0 512 0 z "
       id="rect3850" />
  </g>
  <g
     inkscape:groupmode="layer"
     id="layer2"
     inkscape:label="Layer 2">
    <rect
       style="fill:#23272a;fill-opacity:1;stroke-width:0.6917069"
       id="rect3850-3"
       width="556.92712"
       height="395.86755"
       x="233.53642"
       y="314.06622" />
  </g>
  <g
     inkscape:groupmode="layer"
     id="layer1"
     inkscape:label="Layer 1">
    <path
       id="path3715-4"
       style="fill:#7289da"
       d="m 723.85009,509.35042 h -13.2 v -20.4 h 13.2 c 14.2,0 14.2,20.4 0,20.4 z m 32.6,-12.1 c -0.5,-21 -14.7,-29.4 -33,-29.4 h -35.5 v 89.5 h 22.7 v -28.5 h 4 c 12.70536,-0.0201 14.9073,0.25132 24.4,-2.3 10.8,-3.4 17.4,-12.7 17.4,-29.3 z M 347.34987,557.3 h 22.4 v -89.4 h -22.4 z m 66.9,-55.9 c -6.9,-1.5 -11.5,-4 -11.8,-8.3 0.4,-10.4 16.3,-10.7 25.6,-0.8 l 14.7,-11.4 c -9.2,-11.3 -19.6,-14.3 -30.4,-14.3 -16.3,0 -32.1,9.2 -32.1,26.8 0,17.1 13,26.2 27.3,28.4 7.3,1 15.4,3.9 15.2,9 -0.6,9.6 -20.2,9.1 -29.1,-1.8 l -14.1,13.4 c 8.3,10.7 19.6,16.2 30.2,16.2 16.3,0 34.4,-9.5 35.1,-26.8 1,-22 -14.8,-27.5 -30.6,-30.4 z m 60.6,26.6 v -30.8 c 0,-11.1 19.8,-13.7 25.8,-2.5 l 18.3,-7.5 c -7.1,-15.9 -20.3,-20.6 -31.2,-20.6 -17.8,0 -35.4,10.4 -35.4,30.6 V 528 c 0,20.3 17.6,30.6 35,30.6 11.2,0 24.6,-5.6 32,-20.1 l -19.6,-9.1 c -4.8,12.4 -24.9,9.4 -24.9,-1.4 z m -174.1,-60.1 h -33.2 v 37.6 l 22.1,20 V 489 h 11.9 c 7.5,0 11.2,3.7 11.2,9.5 v 27.9 c 0,5.8 -3.5,9.7 -11.2,9.7 h -34 v 21.2 h 33.2 c 17.8,0.1 34.5,-8.8 34.5,-29.4 v -30.1 c 0,-20.8 -16.7,-29.9 -34.5,-29.9 z m 260.6,42.8 h -13.2 v -20.4 h 13.2 c 14.2,0 14.2,20.4 0,20.4 z m 32.6,-12.1 c -0.5,-21 -14.7,-29.4 -33,-29.4 h -35.5 v 89.5 h 22.7 v -28.5 h 4 l 20.6,28.4 h 28 l -24.2,-30.7 c 10.8,-3.4 17.4,-12.7 17.4,-29.3 z m 61.59389,28 c 0,6.4 -7.2,9.7 -14.3,9.7 -7.2,0 -14.4,-3.2 -14.4,-9.7 V 496 c 0,-6.6 7,-10.1 14,-10.1 7.3,0 14.7,3.2 14.7,10.1 z m -14.4,-61.3 c -18.4,0 -36.7,10.1 -36.7,30.7 v 30.6 c 0,20.5 18.4,30.7 36.9,30.7 18.4,0 36.7,-10.2 36.7,-30.7 V 496 c 0,-20.5 -18.5,-30.7 -36.9,-30.7 z"
       inkscape:connector-curvature="0" />
    <path
       style="fill:#ffffff;fill-opacity:1;stroke-width:1.11035526"
       d="M 844.82029,230.19251 503.31053,299.4459 179.17967,397.93994 520.68943,328.68655 Z"
       id="rect4729-3"
       inkscape:connector-curvature="0" />
    <path
       inkscape:connector-curvature="0"
       style="fill:#ffffff;fill-opacity:1;stroke-width:1.11035526"
       d="M 854.25075,626.06006 512.741,695.31345 188.61014,793.80749 530.1199,724.5541 Z"
       id="rect4729-3-7" />
    <path
       style="fill:#ffffff;fill-opacity:1;stroke-width:0.25734848"
       d="m 746.48984,235.91856 -79.15216,16.05095 -75.12423,22.82809 79.15216,-16.05095 z"
       id="rect4729-3-2"
       inkscape:connector-curvature="0" />
    <path
       style="fill:#ffffff;fill-opacity:1;stroke-width:0.25734848"
       d="m 347.54878,369.44082 -79.15216,16.05095 -75.12423,22.82809 79.15216,-16.05095 z"
       id="rect4729-3-2-9"
       inkscape:connector-curvature="0" />
    <path
       style="fill:#ffffff;fill-opacity:1;stroke-width:0.25734848"
       d="m 332.82031,774.36797 -79.15216,16.05095 -75.12423,22.82809 79.15216,-16.05095 z"
       id="rect4729-3-2-9-1"
       inkscape:connector-curvature="0" />
    <path
       style="fill:#ffffff;fill-opacity:1;stroke-width:0.25734848"
       d="m 817.00575,614.67352 -79.15216,16.05095 -75.12423,22.82809 79.15216,-16.05095 z"
       id="rect4729-3-2-9-7"
       inkscape:connector-curvature="0" />
  </g>
  <g
     inkscape:groupmode="layer"
     id="layer5"
     inkscape:label="Layer 0" />
</svg>
